<?xml version="1.0" standalone="no"?>
<!DOCTYPE svg PUBLIC "-//W3C//DTD SVG 20010904//EN"
 "http://www.w3.org/TR/2001/REC-SVG-20010904/DTD/svg10.dtd">
<svg version="1.0" xmlns="http://www.w3.org/2000/svg"
 width="285.000000pt" height="315.000000pt" viewBox="0 0 285.000000 315.000000"
 preserveAspectRatio="xMidYMid meet">

<g transform="translate(0.000000,315.000000) scale(0.100000,-0.100000)"
fill="#000000" stroke="none">
<path d="M1438 2025 c-116 -29 -214 -98 -244 -171 -19 -44 -18 -136 1 -181 9
-21 30 -49 48 -64 l32 -27 -29 -54 c-45 -81 -86 -138 -100 -138 -7 0 -22 11
-34 25 -43 50 -90 43 -138 -21 -38 -49 -44 -127 -15 -186 21 -43 97 -117 149
-144 63 -33 194 -3 249 57 26 30 70 106 103 179 13 30 25 56 25 57 1 2 36 12
77 22 200 51 313 164 325 326 8 95 -9 139 -84 216 -41 42 -83 75 -113 88 -65
28 -178 35 -252 16z m200 -50 c99 -30 142 -87 142 -187 0 -151 -122 -270 -316
-309 l-65 -13 -48 -101 c-52 -110 -94 -164 -145 -189 -40 -19 -122 -20 -154
-2 -62 34 -81 125 -39 187 30 45 50 47 68 7 11 -26 21 -34 45 -36 26 -3 38 4
75 46 24 27 68 93 98 148 88 160 123 216 164 262 35 37 45 42 82 42 61 0 64
-20 11 -85 -38 -47 -116 -168 -116 -181 0 -11 39 -2 85 20 93 43 142 123 132
219 -6 66 -39 97 -100 97 -115 -1 -207 -99 -207 -222 0 -46 -10 -52 -53 -34
-50 21 -67 51 -67 120 0 95 60 164 176 200 97 30 157 33 232 11z"/>
</g>
</svg>
